HIERARCHY
ROOT Hips
{
    OFFSET 0.000000 0.000000 0.000000
    CHANNELS 6 Xposition Yposition Zposition Zrotation Xrotation Yrotation
    JOINT Spine
    {
        OFFSET -0.000000 7.284621 0.000000
        CHANNELS 3 Zrotation Xrotation Yrotation
        JOINT Spine1
        {
            OFFSET -0.000000 19.968920 0.000000
            CHANNELS 3 Zrotation Xrotation Yrotation
            JOINT Neck
            {
                OFFSET -0.000000 21.745657 0.000000
                CHANNELS 3 Zrotation Xrotation Yrotation
                JOINT Head
                {
                    OFFSET -0.000000 13.769711 1.776737
                    CHANNELS 3 Zrotation Xrotation Yrotation
                    End Site
                    {
                        OFFSET -0.000000 17.767368 0.000000
                    }
                }
            }
            JOINT LeftShoulder
            {
                OFFSET 3.594505 17.711157 -0.013107
                CHANNELS 3 Zrotation Xrotation Yrotation
                JOINT LeftArm
                {
                    OFFSET 12.210003 0.000000 0.000000
                    CHANNELS 3 Zrotation Xrotation Yrotation
                    JOINT LeftForeArm
                    {
                        OFFSET 24.535166 0.000000 0.000000
                        CHANNELS 3 Zrotation Xrotation Yrotation
                        JOINT LeftHand
                        {
                            OFFSET 20.235195 0.000000 0.000000
                            CHANNELS 3 Zrotation Xrotation Yrotation
                            JOINT LeftHandThumb1
                            {
                                OFFSET 1.906737 -2.166747 3.033446
                                CHANNELS 3 Zrotation Xrotation Yrotation
                                JOINT LeftHandThumb2
                                {
                                    OFFSET 2.043247 0.000000 1.332553
                                    CHANNELS 3 Zrotation Xrotation Yrotation
                                    JOINT LeftHandThumb3
                                    {
                                        OFFSET 2.665105 0.000000 0.000000
                                        CHANNELS 3 Zrotation Xrotation Yrotation
                                        End Site
                                        {
                                            OFFSET 2.367595 0.000000 0.000000
                                        }
                                    }
                                }
                            }
                            JOINT LeftHandIndex1
                            {
                                OFFSET 7.800290 0.000000 3.033446
                                CHANNELS 3 Zrotation Xrotation Yrotation
                                JOINT LeftHandIndex2
                                {
                                    OFFSET 4.441842 0.000000 0.000000
                                    CHANNELS 3 Zrotation Xrotation Yrotation
                                    JOINT LeftHandIndex3
                                    {
                                        OFFSET 2.220921 0.000000 0.000000
                                        CHANNELS 3 Zrotation Xrotation Yrotation
                                        End Site
                                        {
                                            OFFSET 1.972996 0.000000 0.000000
                                        }
                                    }
                                }
                            }
                            JOINT LeftHandMiddle1
                            {
                                OFFSET 7.800290 0.000000 1.005371
                                CHANNELS 3 Zrotation Xrotation Yrotation
                                JOINT LeftHandMiddle2
                                {
                                    OFFSET 4.886026 0.000000 0.000000
                                    CHANNELS 3 Zrotation Xrotation Yrotation
                                    JOINT LeftHandMiddle3
                                    {
                                        OFFSET 2.665105 0.000000 0.000000
                                        CHANNELS 3 Zrotation Xrotation Yrotation
                                        End Site
                                        {
                                            OFFSET 2.367595 0.000000 0.000000
                                        }
                                    }
                                }
                            }
                            JOINT LeftHandRing1
                            {
                                OFFSET 7.366940 0.000000 -1.005371
                                CHANNELS 3 Zrotation Xrotation Yrotation
                                JOINT LeftHandRing2
                                {
                                    OFFSET 4.441842 0.000000 0.000000
                                    CHANNELS 3 Zrotation Xrotation Yrotation
                                    JOINT LeftHandRing3
                                    {
                                        OFFSET 2.220921 0.000000 0.000000
                                        CHANNELS 3 Zrotation Xrotation Yrotation
                                        End Site
                                        {
                                            OFFSET 1.972996 0.000000 0.000000
                                        }
                                    }
                                }
                            }
                            JOINT LeftHandPinky1
                            {
                                OFFSET 6.933591 0.000000 -3.033446
                                CHANNELS 3 Zrotation Xrotation Yrotation
                                JOINT LeftHandPinky2
                                {
                                    OFFSET 3.553473 0.000000 0.000000
                                    CHANNELS 3 Zrotation Xrotation Yrotation
                                    JOINT LeftHandPinky3
                                    {
                                        OFFSET 1.776737 0.000000 0.000000
                                        CHANNELS 3 Zrotation Xrotation Yrotation
                                        End Site
                                        {
                                            OFFSET 1.578397 0.000000 0.000000
                                        }
                                    }
                                }
                            }
                        }
                    }
                }
            }
            JOINT RightShoulder
            {
                OFFSET -3.500468 17.711157 -0.013107
                CHANNELS 3 Zrotation Xrotation Yrotation
                JOINT RightArm
                {
                    OFFSET -12.210003 0.000000 0.000000
                    CHANNELS 3 Zrotation Xrotation Yrotation
                    JOINT RightForeArm
                    {
                        OFFSET -24.535166 0.000000 0.000000
                        CHANNELS 3 Zrotation Xrotation Yrotation
                        JOINT RightHand
                        {
                            OFFSET -20.235195 0.000000 0.000000
                            CHANNELS 3 Zrotation Xrotation Yrotation
                            JOINT RightHandThumb1
                            {
                                OFFSET -1.906737 -2.166747 3.033446
                                CHANNELS 3 Zrotation Xrotation Yrotation
                                JOINT RightHandThumb2
                                {
                                    OFFSET -2.043247 0.000000 1.332553
                                    CHANNELS 3 Zrotation Xrotation Yrotation
                                    JOINT RightHandThumb3
                                    {
                                        OFFSET -2.665105 0.000000 0.000000
                                        CHANNELS 3 Zrotation Xrotation Yrotation
                                        End Site
                                        {
                                            OFFSET -2.367595 0.000000 0.000000
                                        }
                                    }
                                }
                            }
                            JOINT RightHandIndex1
                            {
                                OFFSET -7.800290 0.000000 3.033446
                                CHANNELS 3 Zrotation Xrotation Yrotation
                                JOINT RightHandIndex2
                                {
                                    OFFSET -4.441842 0.000000 0.000000
                                    CHANNELS 3 Zrotation Xrotation Yrotation
                                    JOINT RightHandIndex3
                                    {
                                        OFFSET -2.220921 0.000000 0.000000
                                        CHANNELS 3 Zrotation Xrotation Yrotation
                                        End Site
                                        {
                                            OFFSET -1.972996 0.000000 0.000000
                                        }
                                    }
                                }
                            }
                            JOINT RightHandMiddle1
                            {
                                OFFSET -7.800290 0.000000 1.005371
                                CHANNELS 3 Zrotation Xrotation Yrotation
                                JOINT RightHandMiddle2
                                {
                                    OFFSET -4.886026 0.000000 0.000000
                                    CHANNELS 3 Zrotation Xrotation Yrotation
                                    JOINT RightHandMiddle3
                                    {
                                        OFFSET -2.665105 0.000000 0.000000
                                        CHANNELS 3 Zrotation Xrotation Yrotation
                                        End Site
                                        {
                                            OFFSET -2.367595 0.000000 0.000000
                                        }
                                    }
                                }
                            }
                            JOINT RightHandRing1
                            {
                                OFFSET -7.366940 0.000000 -1.005371
                                CHANNELS 3 Zrotation Xrotation Yrotation
                                JOINT RightHandRing2
                                {
                                    OFFSET -4.441842 0.000000 0.000000
                                    CHANNELS 3 Zrotation Xrotation Yrotation
                                    JOINT RightHandRing3
                                    {
                                        OFFSET -2.220921 0.000000 0.000000
                                        CHANNELS 3 Zrotation Xrotation Yrotation
                                        End Site
                                        {
                                            OFFSET -1.972996 0.000000 0.000000
                                        }
                                    }
                                }
                            }
                            JOINT RightHandPinky1
                            {
                                OFFSET -6.933591 0.000000 -3.033446
                                CHANNELS 3 Zrotation Xrotation Yrotation
                                JOINT RightHandPinky2
                                {
                                    OFFSET -3.553473 0.000000 0.000000
                                    CHANNELS 3 Zrotation Xrotation Yrotation
                                    JOINT RightHandPinky3
                                    {
                                        OFFSET -1.776737 0.000000 0.000000
                                        CHANNELS 3 Zrotation Xrotation Yrotation
                                        End Site
                                        {
                                            OFFSET -1.578397 0.000000 0.000000
                                        }
                                    }
                                }
                            }
                        }
                    }
                }
            }
        }
    }
    JOINT LeftUpLeg
    {
        OFFSET 8.883684 0.000000 0.000000
        CHANNELS 3 Zrotation Xrotation Yrotation
        JOINT LeftLeg
        {
            OFFSET -0.000000 -38.184189 0.000000
            CHANNELS 3 Zrotation Xrotation Yrotation
            JOINT LeftFoot
            {
                OFFSET -0.000000 -35.840691 0.000000
                CHANNELS 3 Zrotation Xrotation Yrotation
                JOINT LeftToeBase
                {
                    OFFSET -0.000000 -5.774395 13.325527
                    CHANNELS 3 Zrotation Xrotation Yrotation
                    End Site
                    {
                        OFFSET -0.000000 0.000000 3.553473
                    }
                }
            }
        }
    }
    JOINT RightUpLeg
    {
        OFFSET -8.883684 0.000000 0.000000
        CHANNELS 3 Zrotation Xrotation Yrotation
        JOINT RightLeg
        {
            OFFSET -0.000000 -38.184189 0.000000
            CHANNELS 3 Zrotation Xrotation Yrotation
            JOINT RightFoot
            {
                OFFSET -0.000000 -35.840691 0.000000
                CHANNELS 3 Zrotation Xrotation Yrotation
                JOINT RightToeBase
                {
                    OFFSET -0.000000 -5.774395 13.325527
                    CHANNELS 3 Zrotation Xrotation Yrotation
                    End Site
                    {
                        OFFSET -0.000000 0.000000 3.553473
                    }
                }
            }
        }
    }
}
MOTION
Frames:    4
Frame Time:    0.008333
-3.084870    81.434006    113.943390    0.756461    6.116153    6.870552    -3.909391    6.265898    -4.314347    7.711351    -7.534906    -0.999990    11.005885    -21.406134    5.239609    -8.336673    -10.084147    5.055472    10.605994    11.743103    -13.889164    -86.134430    58.156273    20.835684    63.305141    5.007460    -67.082024    8.520976    -28.489584    -45.573120    -3.872212    9.005446    10.464124    -0.000000    0.000000    10.649076    -0.000000    0.000000    21.298153    44.985901    -1.271031    -1.271343    0.000000    0.000000    0.000000    0.000000    0.000000    0.000000    21.546831    -0.983972    5.427755    -17.672140    0.000000    0.000000    -8.836069    0.000000    0.000000    -1.785278    -3.381659    11.693269    -35.344276    0.000000    0.000000    -17.672138    0.000000    0.000000    -25.571213    -8.223245    16.642084    -53.551933    0.000000    0.000000    -26.775965    0.000000    0.000000    -6.026623    -15.331602    1.168793    46.742535    -38.994518    17.194544    -100.917664    -45.029839    38.143452    -32.832203    -61.911713    3.367352    4.069530    2.447479    -1.267200    0.000000    0.000000    -1.405585    0.000000    0.000000    -2.811169    -21.815632    -2.109816    5.254771    0.000000    0.000000    0.000000    0.000000    0.000000    0.000000    -16.870623    0.063460    -2.825579    0.000000    0.000000    0.000000    0.000000    0.000000    0.000000    -11.667531    1.512549    -11.065917    0.000000    0.000000    0.000000    0.000000    0.000000    0.000000    -6.143878    2.204207    -19.661831    0.000000    0.000000    0.000000    0.000000    0.000000    0.000000    9.834012    -22.558729    4.597336    -9.501472    29.077866    16.199549    -5.327047    -3.959319    -12.881096    -0.097056    -1.372967    -0.235736    0.515788    -4.167089    3.935534    1.529143    2.226687    -5.043218    -2.792669    -4.206546    -1.082807    0.002087    0.276295    -0.014126    
-3.155183    81.349136    113.895866    0.496658    6.115870    6.989390    -3.603615    6.587902    -4.164628    7.610592    -8.100875    -0.916856    11.032107    -21.605581    5.130517    -8.475052    -10.033936    4.929372    10.726597    11.792473    -13.999712    -86.463913    58.167461    21.028358    63.435226    5.089956    -66.946327    8.589183    -28.381025    -45.876820    -3.904549    9.001618    10.418691    -0.000000    0.000000    10.610322    -0.000000    0.000000    21.220642    44.988949    -1.125386    -1.125603    0.000000    0.000000    0.000000    0.000000    0.000000    0.000000    21.544451    -0.905498    5.550411    -17.673656    0.000000    0.000000    -8.836828    0.000000    0.000000    -1.787033    -3.355980    11.767969    -35.347321    0.000000    0.000000    -17.673656    0.000000    0.000000    -25.572311    -8.227640    16.649654    -53.556538    0.000000    0.000000    -26.778269    0.000000    0.000000    -6.157665    -15.777846    1.109881    48.519787    -40.756535    18.662119    -101.391235    -45.650650    37.884518    -36.281704    -62.377060    1.290749    4.017398    2.548500    -1.500048    0.000000    0.000000    -1.622827    0.000000    0.000000    -3.245655    -21.764750    -2.211336    5.520095    0.000000    0.000000    0.000000    0.000000    0.000000    0.000000    -16.887819    0.033084    -2.758740    0.000000    0.000000    0.000000    0.000000    0.000000    0.000000    -11.736792    1.544283    -11.201300    0.000000    0.000000    0.000000    0.000000    0.000000    0.000000    -6.253957    2.287238    -20.010418    0.000000    0.000000    0.000000    0.000000    0.000000    0.000000    10.402136    -23.062481    4.913715    -9.833349    29.880180    15.941747    -5.259997    -3.941924    -12.816576    -0.116035    -1.481777    -0.225110    0.746718    -4.081907    4.050292    1.641877    1.929682    -5.178307    -2.864047    -4.068618    -1.138589    0.002047    0.277528    -0.014106    
-3.219222    81.269974    113.857559    0.268049    6.108869    7.133721    -3.307971    6.798355    -4.059935    7.448475    -8.472984    -0.865628    11.116143    -21.813538    5.050575    -8.641356    -9.996876    4.828683    10.813065    11.791879    -14.075401    -86.637039    58.163128    21.130203    63.567394    5.181553    -66.839500    8.624905    -28.276110    -46.139801    -3.922007    8.986650    10.369506    -0.000000    0.000000    10.563600    -0.000000    0.000000    21.127199    44.991024    -1.014385    -1.014544    0.000000    0.000000    0.000000    0.000000    0.000000    0.000000    21.545679    -0.844912    5.642671    -17.668150    0.000000    0.000000    -8.834075    0.000000    0.000000    -1.782184    -3.334074    11.822996    -35.336292    0.000000    0.000000    -17.668148    0.000000    0.000000    -25.563812    -8.226650    16.653770    -53.539841    0.000000    0.000000    -26.769920    0.000000    0.000000    -6.274176    -15.993059    0.973351    50.193104    -41.935715    20.002800    -101.733658    -46.300556    37.675880    -39.388683    -62.940262    -0.637942    3.991727    2.659176    -1.730638    0.000000    0.000000    -1.841089    0.000000    0.000000    -3.682179    -21.351131    -2.347371    5.981351    0.000000    0.000000    0.000000    0.000000    0.000000    0.000000    -16.685637    -0.031310    -2.551742    0.000000    0.000000    0.000000    0.000000    0.000000    0.000000    -11.726442    1.559617    -11.247934    0.000000    0.000000    0.000000    0.000000    0.000000    0.000000    -6.422760    2.389452    -20.322704    0.000000    0.000000    0.000000    0.000000    0.000000    0.000000    10.900615    -23.512728    5.261399    -10.086413    30.607706    15.641865    -5.191443    -3.896076    -12.789912    -0.136774    -1.589258    -0.209282    0.942548    -3.965100    4.147430    1.747902    1.609469    -5.294279    -2.926263    -3.932533    -1.220954    0.002073    0.278976    -0.014205    
-3.278446    81.199333    113.828186    0.082863    6.102598    7.293528    -3.061256    6.900598    -3.998144    7.275446    -8.679042    -0.840864    11.215200    -21.970467    4.986395    -8.829178    -9.995209    4.746684    10.860323    11.756831    -14.124491    -86.663887    58.126984    21.144804    63.693634    5.289984    -66.783348    8.658206    -28.196735    -46.340435    -3.921226    8.958342    10.316419    -0.000000    0.000000    10.506683    -0.000000    0.000000    21.013365    44.992104    -0.951178    -0.951309    0.000000    0.000000    0.000000    0.000000    0.000000    0.000000    21.546686    -0.809925    5.688265    -17.663290    0.000000    0.000000    -8.831645    0.000000    0.000000    -1.779017    -3.317880    11.841219    -35.326580    0.000000    0.000000    -17.663290    0.000000    0.000000    -25.559021    -8.216791    16.638416    -53.525116    0.000000    0.000000    -26.762562    0.000000    0.000000    -6.367115    -16.047569    0.799396    51.605804    -42.542252    21.075060    -101.956963    -46.964836    37.533756    -41.842556    -63.590015    -2.272913    3.984938    2.756664    -1.921672    0.000000    0.000000    -2.022386    0.000000    0.000000    -4.044774    -20.783976    -2.505904    6.571330    0.000000    0.000000    0.000000    0.000000    0.000000    0.000000    -16.404011    -0.119431    -2.224713    0.000000    0.000000    0.000000    0.000000    0.000000    0.000000    -11.709076    1.562584    -11.180326    0.000000    0.000000    0.000000    0.000000    0.000000    0.000000    -6.655382    2.503872    -20.526148    0.000000    0.000000    0.000000    0.000000    0.000000    0.000000    11.319335    -23.906693    5.642572    -10.262135    31.244944    15.376465    -5.118408    -3.811810    -12.868669    -0.156710    -1.691130    -0.193494    1.098382    -3.827511    4.237013    1.835792    1.273628    -5.388998    -2.977374    -3.798898    -1.333875    0.001755    0.282575    -0.013804    
